<svg width="70" height="73" viewBox="0 0 70 73" fill="none" xmlns="http://www.w3.org/2000/svg">
<circle cx="35" cy="35" r="35" fill="#339933"/>
<g clip-path="url(#clip0_56_19)">
<mask id="mask0_56_19" style="mask-type:alpha" maskUnits="userSpaceOnUse" x="19" y="55" width="33" height="26">
<path fill-rule="evenodd" clip-rule="evenodd" d="M46.9316 60.2366C45.7202 57.6671 43.1065 55.8889 40.0775 55.8889C38.8874 55.8889 37.7614 56.1634 36.7594 56.6525C36.1946 56.1761 35.4648 55.8889 34.6679 55.8889C33.2498 55.8889 32.0441 56.7984 31.6022 58.0659C30.4977 58.1468 29.4955 58.5962 28.7181 59.2917C28.3751 59.1895 28.0117 59.1347 27.6355 59.1347C26.1052 59.1347 24.7869 60.0424 24.1897 61.3488C21.5526 61.71 19.521 63.9718 19.521 66.7081C19.521 69.6958 21.943 72.1178 24.9306 72.1178C25.3178 72.1178 25.6955 72.0771 26.0596 71.9998C26.5436 76.9251 30.6973 80.7732 35.7498 80.7732C40.4016 80.7732 44.2914 77.5114 45.257 73.1502C45.5095 73.1828 45.7669 73.1997 46.0282 73.1997C49.3147 73.1997 51.9788 70.5355 51.9788 67.2491C51.9788 65.3421 51.0818 63.6447 49.6867 62.5557C49.3269 61.3163 48.248 60.3828 46.9316 60.2366Z" fill="white"/>
</mask>
<g mask="url(#mask0_56_19)">
<circle cx="35" cy="35" r="35" fill="white"/>
</g>
</g>
<path d="M39.4892 36.2492C38.6984 37.0038 37.8645 38.0255 37.1066 39.3955C36.3577 36.6995 35.4138 34.723 34.4596 33.276C38.8379 18.6893 17.5 18.1666 17.5 18.1666C17.5 18.1666 18.1229 36.3974 29.2667 35.9788C29.244 34.7581 29.0545 33.5238 28.789 32.3664C28.6154 31.6118 28.4089 30.8922 28.1956 30.2281C27.4831 28.0253 26.6787 26.4618 26.6787 26.4618C27.491 27.5502 28.2104 28.5888 28.8457 29.5651C31.0321 32.9196 32.2256 35.5285 32.7804 36.9065C34.1499 39.8402 35.3797 44.6654 35.3797 52.551C35.3797 53.4437 36.107 54.1666 36.9988 54.1666C37.8928 54.1666 38.6189 53.4437 38.6189 52.551C38.6189 49.9953 38.4953 47.7212 38.2718 45.6927C38.788 43.2173 39.5674 41.4603 40.3741 40.2158C40.904 39.2077 41.8808 37.4813 43.1969 35.7186C44.369 34.1505 45.8144 32.5531 47.4493 31.4126C47.4493 31.4126 44.0967 35.1133 43.88 38.736C53.1403 39.2179 53.5 24.6901 53.5 24.6901C53.5 24.6901 36.5529 25.2671 39.4892 36.2492Z" fill="white"/>
<defs>
<clipPath id="clip0_56_19">
<rect width="35.8333" height="16.6667" fill="white" transform="translate(17.5 55.8334)"/>
</clipPath>
</defs>
</svg>
